<?xml version="1.0" encoding="utf-8"?>
<!-- Generator: Adobe Illustrator 18.1.0, SVG Export Plug-In . SVG Version: 6.00 Build 0)  -->
<!DOCTYPE svg PUBLIC "-//W3C//DTD SVG 1.1//EN" "http://www.w3.org/Graphics/SVG/1.1/DTD/svg11.dtd">
<svg version="1.1" id="ORNL_two-line" xmlns="http://www.w3.org/2000/svg" xmlns:xlink="http://www.w3.org/1999/xlink" x="0px"
	 y="0px" viewBox="-0.1 2673.5 3400 817.9" enable-background="new -0.1 2673.5 3400 817.9" xml:space="preserve">
<title>ORNL Two-line_white</title>
<path fill="#007833" d="M666.3,3269.1c0,52.1,2.6,95.1,3.3,104.6c0.7,15.3,4.7,22.7,16.7,22.7h8.7c2.6,0,2.6,1.3,2.6,2.8v7
	c0,1.8,0,2.4-2.6,2.4s-23.4-0.9-36.1-0.9c-8.7,0-31.4,0.9-34.9,0.9c-1.3,0-2-0.6-2-2.8v-7.2c0.1-1,1-1.8,2-1.8h11.4
	c8.7,0,13.4-7,15.1-25.4c0-5.5,2.4-48.8,2.4-97.6v-39c0-18.4-11.4-32.6-26.1-32.6h-10.7c-1.3,0-2-0.9-2-2.2v-8.5
	c0-1.2,0.7-1.8,2-1.8c1.7,0,4.3,0,10.4,0.6c6.1,0.6,15.1,0,29.8,0c5.7,0,10.7,0,14.7-0.6s7.4,0,9.3,0c2.9-0.3,5.9,0.8,8,2.8
	c3.3,3.1,68.9,78.6,75.6,87.1c4.7,4.9,56.8,64.4,62.2,70.5h1.3v-31.9c0-27,0-42.3-0.7-57.6c-0.7-11.6-2-41.8-3.7-46.9
	c-2.7-7.3-9.9-12-17.7-11.6h-10.7c-2,0-2-1.3-2-2.8v-7c0-1.8,0-2.4,2.6-2.4c4,0,14.7,0.9,37.4,0.9c20.1,0,27.9-0.9,32.1-0.9
	c2.6,0,3.3,1.3,3.3,2.2v7c0,1.8-0.7,3.1-2,3.1h-9.3c-7,0-10,4.9-11,16.2c-1.7,20.9-5,72.4-5,103.7v81c0,4.3,0,8.6-4,8.6
	c-4.3-0.2-8.3-1.9-11.4-4.9c-2.6-3.1-20.9-22.1-41.5-44.8c-23.4-26.4-49.5-55.2-53.5-60.2c-4-4.9-58.1-65.7-62.2-69.7h-2
	L666.3,3269.1z"/>
<path fill="#007833" d="M960.8,3392.8c-8.1,7.9-18.1,13.7-29.1,16.6c-7,1.7-14.2,2.5-21.4,2.2c-12.3,0-23.1-9.2-23.1-26.4
	c0-13.9,7-27.9,30.7-37.7c14-5.5,27.6-11.8,40.8-19v-16c0.2-6.2-1.7-12.2-5.4-17.1c-4.8-3.6-10.8-5.2-16.7-4.6
	c-6.8,0-13.6,1.9-19.4,5.5c-4.7,3.1-1.3,7.7-1.3,15.1c0,11.1-6,17.8-20.1,17.8c-5.8,0.5-10.8-3.8-11.3-9.5c0-0.3,0-0.6,0-0.9
	c0.7-10.4,6.5-19.8,15.4-25.2c15.8-11.2,34.8-17.2,54.2-17.1c18.8,0,24.7,3.7,30.7,8.6c6.1,6,9.1,14.5,8,23l0.7,48.8v14.1
	c0,16.6,2.6,21.5,8.7,21.5c4.1,0.1,8.1-1.7,10.7-4.9c1.3-1.8,2-1.8,3.3-1.3l4,2.4c1.3,0.6,2,1.8,0.7,4.9
	c-6,11.3-17.9,18.2-30.7,17.8c-12.5,0.8-23.9-6.8-27.9-18.7L960.8,3392.8z M958.8,3339.8c-14.7,8.6-36.8,13.9-36.8,36.2
	c0,12.5,7.4,18.7,15.4,18.7c9.3-0.6,21.4-9.2,21.4-14.7L958.8,3339.8z"/>
<path fill="#007833" d="M1024.1,3296.8c-2.6,0-4.7-1.3-4.7-4.3s2-4.3,6.3-5.9c9.3-3.1,38.4-25.8,45.8-38.6c1-2,3.1-3.2,5.4-3.1
	c2.1-0.1,3.9,1.5,4.1,3.6c0,0.2,0,0.5,0,0.7l-1.3,30.4h44.1c2,0,2.6,1.3,2.4,2.4l-3.3,12.9c0,1.3-1.3,1.8-3.3,1.8h-40.4
	c-0.7,12.9-1,27.9-1,41.1v27.9c0,23.9,11,28.9,17.7,28.9c6.6,0.1,13.2-1.2,19.4-3.7c2.4-0.9,3.3-0.9,4,0.6l2,3.7
	c0.6,1.6,0.1,3.4-1.3,4.3c-12.4,8.2-27,12.5-41.8,12.3c-20.1,0-34.9-14.7-34.9-27.9c0-11,1-35.6,1-47.3v-39.9L1024.1,3296.8z"/>
<path fill="#007833" d="M1157.5,3320.4c0-9.2-2-15.3-17.4-19c-3-0.6-3.3-1.5-3.3-2.8v-3.3c0-1.3,0.7-1.8,2.4-2.4
	c4.7-1.8,37.8-12.5,43.4-14.7c2.6-1,5.3-1.7,8-1.8c2,0,3,1.3,2.6,3.7c-0.7,4.9-0.7,24.5-0.7,50v33.1c-0.2,8.8,0,17.6,0.7,26.3
	c0.7,5.5,2,7.9,5.4,7.9h13.4c2.6,0,3.3,0.6,3.3,2.2v6.1c0,1.8-0.7,3.1-2.6,3.1c-2,0-18.1-0.9-40.4-0.9c-19.4,0-32.1,0.9-36.1,0.9
	c-1.7,0-2.6-0.6-2.6-3.1v-5.9c0-1.8,1.3-2.4,3.3-2.4h14.7c3.3,0,5-1.3,5.4-6.1c0-9.2,0.7-19,0.7-27.9L1157.5,3320.4z M1168.9,3244.5
	c-10.3,0.8-19.4-6.8-20.4-17.1c0-8.9,9-17.1,22.4-17.1c9.7-1.2,18.5,5.8,19.7,15.5c0,0.2,0,0.3,0.1,0.5
	C1190.6,3235.1,1183.9,3244.5,1168.9,3244.5L1168.9,3244.5z"/>
<path fill="#007833" d="M1348.8,3294c14.5,12,23,29.9,23.1,48.8c-0.6,17.7-8.1,34.4-20.9,46.6c-15,14.7-35.2,22.6-56.2,22.1
	c-20.5,1.2-40.4-6.9-54.2-22.1c-12.6-12.5-19.2-29.8-18.1-47.5c1-20.4,11.3-39.1,27.9-51c13.8-10,30.5-15.2,47.5-14.7
	C1316.5,3275.5,1334.7,3281.9,1348.8,3294z M1331.1,3341.5c0-33.7-19.4-53.4-34.9-53.4c-7.8-0.4-15.5,2.7-20.9,8.3
	c-10.4,10.7-14.4,23.6-14.4,46c0,17.8,1.3,29.4,10.4,42.7c5.7,8.9,15.9,14,26.4,13.2c21.6,0.3,33.3-25.2,33.3-56.5L1331.1,3341.5z"
	/>
<path fill="#007833" d="M1425.7,3278.6c2.1-1.3,4.5-2.1,7-2.4c2,0,3.3,1.2,4,3.7l2.6,16h2c11.6-11.7,27-18.7,43.4-19.7
	c10.3-0.7,20.6,1.9,29.4,7.4c14.7,9.8,18.4,19,18.4,31.6v44.2c0,9.8,0,23.3,0,29.4c0,6.1,4,8.6,8,8.6h8.8c3,0,4,0.6,4,2.2v7
	c0,1.5-0.7,2.2-2.6,2.2c-2,0-12.7-0.9-36.1-0.9c-20.1,0-30.7,0.9-32.8,0.9c-2.1,0-2.6-1.3-2.6-3.7v-5.2c0-1.8,0.7-2.4,4-2.4h7
	c2.6,0,5.4-1.8,6-7.4c1-9.6,1.5-19.2,1.3-28.9V3326c0-12.3-0.7-20.2-8.7-26.3c-5.7-4.4-12.9-6.4-20.1-5.5c-7.9,0-15.5,2.8-21.4,7.9
	c-5.2,6-7.7,13.9-7,21.8v63.2c0,7,1.7,10.5,6.3,10.5h6c2.6,0,3.3,0.6,3.3,2.8v5.4c0,1.8-0.7,3.1-2.6,3.1s-11.4-0.9-31.4-0.9
	s-31.4,0.9-33.5,0.9s-2-1.3-2-3.1v-5.9c0-1.8,0.7-2.4,3.3-2.4h7c4,0,8.7-1.3,8.7-6.1v-69.2c0-9.2-6-13.9-13.9-17.8l-2.6-1.3
	c-1.5-0.3-2.6-1.5-2.6-3.1v-2.4c0-1.3,1.3-2.4,3.3-3.1L1425.7,3278.6z"/>
<path fill="#007833" d="M1643.7,3392.8c-8.1,7.9-18.1,13.7-29.1,16.6c-7,1.7-14.2,2.5-21.4,2.2c-12.3,0-23.1-9.2-23.1-26.4
	c0-13.9,7-27.9,30.7-37.7c14-5.5,27.6-11.8,40.8-19v-16c0.2-6.2-1.7-12.2-5.4-17.1c-4.8-3.6-10.8-5.2-16.7-4.6
	c-6.8,0-13.6,1.9-19.4,5.5c-4.7,3.1-1.3,7.7-1.3,15.1c0,11.1-6,17.8-20.1,17.8c-5.8,0.5-10.8-3.8-11.3-9.5c0-0.3,0-0.6,0-0.9
	c0.7-10.4,6.5-19.8,15.4-25.2c15.8-11.2,34.8-17.2,54.2-17.1c18.8,0,24.7,3.7,30.7,8.6c6.1,6,9.1,14.5,8,23l0.7,48.8v14.1
	c0,16.6,2.6,21.5,8.7,21.5c4.1,0.1,8.1-1.7,10.7-4.9c1.3-1.8,2-1.8,3.3-1.3l4,2.4c1.3,0.6,2,1.8,0.7,4.9c-6,11.3-18,18.2-30.7,17.8
	c-12.5,0.8-23.9-6.8-27.9-18.7L1643.7,3392.8z M1641.7,3339.8c-14.7,8.6-36.8,13.9-36.8,36.2c0,12.5,7.4,18.7,15.4,18.7
	c9.3-0.6,21.4-9.2,21.4-14.7V3339.8z"/>
<path fill="#007833" d="M1738.7,3290.4c0-21.5-0.7-47.9-1.3-55.8c-0.7-10.5-6.3-15.3-17.1-18.4l-7-1.8c-2-0.6-2-1.3-2-2.4v-3.7
	c0-0.6,0.7-1.8,2.6-2.4c17.2-4.4,34-10.4,50.1-17.8c2.4-0.9,4.9-1.5,7.4-1.8c2,0,3.3,1.3,3.3,5.5c-0.7,16.6-1.3,80.4-1.3,97.6v44.2
	c0,13.9,0,45.4,0.7,54.6c0.7,5.5,1.3,9.8,8.7,9.8h12.7c3.3,0,4,0.6,4,2.8v4.9c0,1.8-0.7,3.1-2,3.1c-2.6,0-17.4-0.9-40.8-0.9
	c-25.4,0-38.8,0.9-41.5,0.9s-2.6-1.3-2.6-3.1v-5.9c0-1.8,0.7-2.4,4.7-2.4h12.7c3.3,0,8.4-2.4,8.4-11v-95.9L1738.7,3290.4
	L1738.7,3290.4z"/>
<path fill="#007833" d="M2084.7,3344.6c0.7,0.6,0.7,1.3,0.7,3.1c-1.3,1.8-14.7,52.8-16.7,61.1c-8.7,0-105-0.9-139.4-0.9
	c-30.1,0-41.8,0.9-46.1,0.9c-2.6,0-2.6-0.6-2.6-2.8v-7c0-1.8,0-2.4,2-2.4h13.4c12.1,0,13.9-4.3,13.9-8.3c0-5.5,1.3-82.2,1.3-100.6
	v-17.1c0-19.7-0.7-52.1-1.3-57.4c-0.7-7.9-2-11-10.7-11h-13.9c-1.5,0-2.7-1.3-2.6-2.8l0,0v-7c0-1.8,0.7-2.4,2.6-2.4
	c3.3,0,15.4,0.9,46.1,0.9c36.1,0,50.1-0.9,52.8-0.9s3.3,1.3,3.3,2.8v7c0,1.3-0.7,2.4-3.3,2.4h-18.1c-10,0-11.4,3.1-11.4,11.4
	c0,4.3-1.3,50.3-1.3,71.8v26.3c0,5.5,0,71.8,1.3,85h18.8c18.8,0,42.8,0,56.2-1.5c18.8-2.4,40.1-39.2,44.8-50.9c1.3-1.3,2-1.8,4-1.3
	L2084.7,3344.6z"/>
<path fill="#007833" d="M2179.8,3392.8c-8.1,7.9-18.1,13.7-29.1,16.6c-7,1.7-14.2,2.5-21.4,2.2c-12.3,0-23.1-9.2-23.1-26.4
	c0-13.9,7-27.9,30.7-37.7c14-5.5,27.6-11.8,40.8-19v-16c0.2-6.2-1.7-12.2-5.4-17.1c-4.8-3.6-10.8-5.2-16.7-4.6
	c-6.8,0-13.6,1.9-19.4,5.5c-4.7,3.1-1.3,7.7-1.3,15.1c0,11.1-6,17.8-20.1,17.8c-5.8,0.5-10.8-3.8-11.3-9.5c0-0.3,0-0.6,0-0.9
	c0.7-10.4,6.5-19.8,15.4-25.2c15.8-11.2,34.8-17.2,54.2-17.1c18.8,0,24.7,3.7,30.7,8.6c6.1,6,9.1,14.6,7.9,23.1l0.7,48.8v13.9
	c0,16.6,2.6,21.5,8.7,21.5c4.1,0.1,8.1-1.7,10.7-4.9c1.3-1.8,2-1.8,3.3-1.3l4,2.4c1.3,0.6,2,1.8,0.7,4.9
	c-6,11.3-17.9,18.2-30.7,17.8c-12.5,0.8-23.9-6.8-27.9-18.7L2179.8,3392.8z M2177.8,3339.8c-14.7,8.6-36.8,13.9-36.8,36.2
	c0,12.5,7.4,18.7,15.4,18.7c9.3-0.6,21.4-9.2,21.4-14.7L2177.8,3339.8L2177.8,3339.8z"/>
<path fill="#007833" d="M2269,3410.5c-1.3,0.7-2.8,1-4.3,0.9l-4.7-1.3c-1.3-0.6-1.3-1.3-1.3-2.4c0.7-4.3,1-30,1-52.1l-0.7-112
	c0-20.9-3.7-24.5-14.4-27.9l-4-1.3c-4-0.6-4.7-1.3-4.7-2.4v-3.1c0-0.6,0.7-1.8,3.3-2.4c13.4-4.3,32.8-12.3,43.4-17.1
	c3-2,6.4-3.3,10-3.7c2.6,0,4,1.8,3.3,4.9s-1.3,37.4-1.7,64.1v36.8c12.9-10.4,29.2-16,45.8-15.6c19.5,0.1,37.8,9.7,48.8,25.8
	c7,11.5,10.4,24.9,9.7,38.3c0,33.7-32.8,71.2-73.5,71.2c-14.7,0.5-29.3-2.2-42.8-7.9L2269,3410.5z M2294.1,3341.5
	c0,25.8,0.7,35.6,4.7,44.8c5.2,8.7,14.6,14,24.7,13.9c12.2,0.5,23.7-5.5,30.4-15.6c6.4-10.3,9.5-22.3,8.7-34.4
	c0-35.6-16-55.8-42.5-55.8c-9.5-0.1-18.7,3.2-26.1,9.2v37.9H2294.1L2294.1,3341.5z"/>
<path fill="#007833" d="M2543.3,3294c14.5,12,23,29.9,23.1,48.8c-0.6,17.7-8.1,34.4-20.9,46.6c-15,14.7-35.2,22.6-56.2,22.1
	c-20.5,1.2-40.4-6.9-54.2-22.1c-12.6-12.5-19.2-29.8-18.1-47.5c1-20.4,11.3-39.1,27.9-51c13.8-10,30.5-15.2,47.5-14.7
	C2511,3275.5,2529.2,3281.9,2543.3,3294z M2525.6,3341.9c0-33.7-19.4-53.4-34.9-53.4c-7.8-0.4-15.5,2.7-20.9,8.3
	c-10.4,10.7-14.4,23.6-14.4,46c0,17.8,1.3,29.4,10.4,42.7c5.7,8.9,15.9,14,26.4,13.2C2514.3,3398.5,2525.6,3373.1,2525.6,3341.9z"/>
<path fill="#007833" d="M2600.6,3328.9c0-13.9-2.6-19-12.7-23.9l-6-3.1c-2-0.6-2.6-1.3-2.6-2.4v-1.8c0-1.3,0.7-1.8,2.6-2.8
	l40.4-17.5c1.7-0.7,3.5-1.1,5.4-1.3c2,0,2.6,1.8,3,3.7l3,22.1h1.3c11.4-17.1,25.4-27.9,40.1-27.9c8.7-0.9,16.4,5.4,17.3,14.1
	c0,0.4,0.1,0.8,0.1,1.3c-1,9.3-8.7,16.3-18.1,16.6c-3.9,0-7.8-0.8-11.4-2.4c-2.8-1.7-6.1-2.6-9.3-2.4c-5.8,0.5-11.1,3.8-13.9,8.9
	c-2.5,4.6-3.9,9.8-4,15.1v59.6c0,9.8,2.6,12.9,9.3,12.9h14.7c2,0,2.6,0.6,2.6,2.2v7c0,1.5-0.7,2.2-2.4,2.2s-17.1-0.9-41.5-0.9
	s-36.5,0.9-39.1,0.9s-2.4-0.6-2.4-2.2v-7c0-1.8,0.7-2.4,3-2.4h11.7c5.4,0,8.7-2.4,8.7-8.3L2600.6,3328.9z"/>
<path fill="#007833" d="M2777.1,3392.8c-8.1,7.9-18.1,13.7-29.1,16.6c-7,1.7-14.2,2.5-21.4,2.2c-12.3,0-23.1-9.2-23.1-26.4
	c0-13.9,7-27.9,30.7-37.7c14-5.5,27.6-11.8,40.8-19v-16c0.2-6.2-1.7-12.2-5.4-17.1c-4.8-3.6-10.8-5.2-16.7-4.6
	c-6.8,0-13.6,1.9-19.4,5.5c-4.7,3.1-1.3,7.7-1.3,15.1c0,11.1-6,17.8-20.1,17.8c-5.8,0.5-10.8-3.8-11.3-9.5c0-0.3,0-0.6,0-0.9
	c0.7-10.4,6.5-19.8,15.4-25.2c15.8-11.2,34.8-17.2,54.2-17.1c18.8,0,24.7,3.7,30.7,8.6c6.1,6,9.1,14.5,8,23l0.7,48.8v14.1
	c0,16.6,2.6,21.5,8.7,21.5c4.1,0.1,8.1-1.7,10.7-4.9c1.3-1.8,2-1.8,3.3-1.3l4,2.4c1.3,0.6,2,1.8,0.7,4.9c-6,11.3-18,18.2-30.7,17.8
	c-12.5,0.8-23.9-6.8-27.9-18.7L2777.1,3392.8z M2775.1,3339.8c-14.7,8.6-36.8,13.9-36.8,36.2c0,12.5,7.4,18.7,15.4,18.7
	c9.3-0.6,21.4-9.2,21.4-14.7L2775.1,3339.8L2775.1,3339.8z"/>
<path fill="#007833" d="M2840.2,3296.8c-2.6,0-4.7-1.3-4.7-4.3s2-4.3,6.3-5.9c9.3-3.1,38.4-25.8,45.8-38.6c1-2,3.1-3.2,5.4-3.1
	c2.1-0.1,3.9,1.5,4.1,3.6c0,0.2,0,0.5,0,0.7l-1.3,30.4h44.1c2,0,2.6,1.3,2.4,2.4l-3.3,12.9c0,1.3-1.3,1.8-3.3,1.8h-40.6
	c-0.7,12.9-1,27.9-1,41.1v27.9c0,23.9,11,28.9,17.7,28.9c6.6,0.1,13.2-1.2,19.4-3.7c2.4-0.9,3.3-0.9,4,0.6l2,3.7
	c0.6,1.6,0.1,3.4-1.3,4.3c-12.4,8.2-27,12.5-41.8,12.3c-20.1,0-34.9-14.7-34.9-27.9c0-11,1-35.6,1-47.3v-39.9L2840.2,3296.8z"/>
<path fill="#007833" d="M3069.9,3294c14.5,12,23,29.9,23.1,48.8c-0.6,17.7-8.1,34.4-20.9,46.6c-15,14.7-35.2,22.6-56.2,22.1
	c-20.5,1.2-40.4-6.9-54.2-22.1c-12.6-12.5-19.2-29.8-18.1-47.5c1-20.4,11.3-39.1,27.9-51c13.8-10,30.5-15.2,47.5-14.7
	C3037.5,3275.5,3055.7,3281.9,3069.9,3294z M3052.1,3341.5c0-33.7-19.4-53.4-34.9-53.4c-7.8-0.4-15.5,2.7-20.9,8.3
	c-10.4,10.7-14.4,23.6-14.4,46c0,17.8,1.3,29.4,10.4,42.7c5.7,8.9,15.9,14,26.4,13.2c21.9,0.3,33.3-25.2,33.3-56.5L3052.1,3341.5z"
	/>
<path fill="#007833" d="M3127.2,3328.9c0-13.9-2.6-19-12.7-23.9l-6-3.1c-2-0.6-2.6-1.3-2.6-2.4v-1.8c0-1.3,0.7-1.8,2.6-2.8
	l40.4-17.5c1.7-0.7,3.5-1.1,5.4-1.3c2,0,2.6,1.8,3,3.7l3,22.1h1.3c11.4-17.1,25.4-27.9,40.1-27.9c8.7-0.9,16.4,5.4,17.3,14.1
	c0,0.4,0.1,0.8,0.1,1.3c-1,9.3-8.7,16.3-18.1,16.6c-3.9,0-7.8-0.8-11.4-2.4c-2.8-1.7-6.1-2.6-9.3-2.4c-5.8,0.5-11.1,3.8-13.9,8.9
	c-2.5,4.6-3.9,9.8-4,15.1v59.6c0,9.8,2.6,12.9,9.3,12.9h14.7c2,0,2.6,0.6,2.6,2.2v7c0,1.5-0.7,2.2-2.4,2.2s-17.1-0.9-41.5-0.9
	s-36.5,0.9-39.1,0.9s-2.4-0.6-2.4-2.2v-7c0-1.8,0.7-2.4,3-2.4h11.5c5.4,0,8.7-2.4,8.7-8.3L3127.2,3328.9z"/>
<path fill="#007833" d="M3224.8,3474.9c0.2-8.6,7.4-15.5,16-15.3c5.1,0.2,10.1,1.5,14.7,3.7c2.8,1.4,6.1,1.1,8.7-0.6
	c10.1-15.4,18.6-31.7,25.4-48.8c-2-9.2-40.8-104.6-43.1-110.1c-3.7-7.9-7-12.9-13.9-12.9h-7c-2,0-2.6-0.9-2.6-2.4v-7
	c0-1.3,0.7-2.2,2.6-2.2c2,0,10.7,0.9,35.4,0.9c19.4,0,29.4-0.9,33.5-0.9c2,0,2.6,0.6,2.6,2.4v7c0,1.3-0.7,2.2-2.4,2.2h-5
	c-3.3,0-6,1.8-5,6.4c1,6.1,20.9,68.7,24.4,75.5h1.3c6-11.6,29.4-63.8,31.1-70.3c2-7.9-1-11.6-7-11.6h-5.4c-2,0-2.6-0.9-2.6-2.2v-7
	c0-1.5,0.7-2.4,2.6-2.4c4,0,10.7,0.9,28.7,0.9c11.4,0,19.4-0.9,22.4-0.9c1.7,0,2.4,0.9,2.4,2.4v6.4c0,1.8-0.7,2.4-2,2.4h-4
	c-4.6-0.1-9,1.8-12.1,5.2c-7,7.9-29.4,54-53.5,103.7c-16.7,33.1-30.7,62-36.8,71.8c-5.4,7.9-12.1,20.2-30.1,20.2
	C3232.9,3491.4,3224.8,3484.6,3224.8,3474.9z"/>
<path fill="#007833" d="M945.8,2725.1c49.3,40.4,77.3,101.3,75.8,165.1c0.7,44.4-13.9,87.7-41.3,122.7
	c-35.7,44.6-83.6,79.2-167.3,79.2c-44.5-1.1-87.9-13.8-126-36.8c-39.6-24-81.4-84.8-81.4-165.1c0.9-50.6,19-99.4,51.4-138.3
	c48.8-60.2,109.1-71.5,157.1-71.5C862.1,2678.9,908.8,2694.9,945.8,2725.1z M731.6,2736.2c-34,32.9-50.2,90.6-50.2,135
	c0,145,89.2,196.3,136.1,196.3c112.6,0,130.5-124.9,130.5-171.8c0-121.6-82.5-190.7-136.1-190.7
	C801.9,2705.1,769.5,2699.5,731.6,2736.2z"/>
<path fill="#007833" d="M1105.1,2959.4c-3.6,10.5-25.9,75.2-27.9,87.5c-0.7,3.1-1,6.3-0.9,9.6c0,5.9,7,10.9,16.3,10.9h19
	c3.6,0,4.5,0.9,4.5,2.3v11.4c0,2.7-0.9,4.5-3.6,4.5c-6.3,0-25.4-1.4-57.1-1.4c-33.5,0-43.5,1.4-49.8,1.4c-2.7,0-2.7-2.7-2.7-5.9
	v-8.6c0-2.7,0.9-3.6,2.7-3.6h13.9c12.7,0,20.9-6.3,29-20.4c4.5-8.2,37.2-89.7,50.7-127.8c3.2-9.1,39.9-106.9,44.4-118.5
	c0.9-4.5,3.6-12.7,0.9-15.4c-1.4-1.5-2.4-3.4-2.7-5.4c0-1.8,0.9-3.6,4.5-4.5c16.2-4.9,31.3-12.6,44.9-22.7c2.7-2.7,4.5-4.5,7-4.5
	s4.5,5.4,5.4,8.2c8.2,27.9,43.5,129.6,51.7,158.6c10.9,35.3,39.9,119.6,46.2,131.9c8.2,15.4,19.9,20.9,29,20.9h14.5
	c2.7,0,3.6,0.9,3.6,3.2v9.6c0,2.7-0.9,5.4-4.5,5.4c-8.2,0-17.2-1.4-67.1-1.4c-38.1,0-53.5,1.4-63.4,1.4c-3.6,0-4.5-2.7-4.5-5.4v-9.5
	c0-2.7,0.9-3.6,3.6-3.6h11.8c12.7,0,16.3-4.5,13.6-16.8c-3.6-16.3-21.7-74.3-27.2-91.1h-105.8V2959.4z M1205.7,2941.4
	c-4.5-13.1-35.3-116.5-38.1-125.5c-1.8-5.4-2.7-8.2-4.5-8.2s-4.5,1.8-5.9,5.9c-1.8,5.9-42.6,117.4-45.8,127.8H1205.7L1205.7,2941.4z
	"/>
<path fill="#007833" d="M1460.6,2961.5c0,22.7,0.9,88.8,1.3,95.6c0.1,5.6,4.7,10,10.2,10c0.1,0,0.1,0,0.2,0h17.2
	c1.8,0,3.6,0.9,3.6,2.3v12.2c0,1.8-0.9,3.6-2.7,3.6c-5.4,0-19-1.4-58-1.4s-53.5,1.4-58,1.4c-1.8,0-2.7-0.9-2.7-3.2v-12.2
	c-0.2-1.3,0.8-2.6,2.1-2.7c0.2,0,0.4,0,0.6,0h16.3c8.2,0,11.8-3.6,12.2-8.6c0.5-3.6,1.4-86.1,1.4-142.3v-26.6
	c0-8.2-0.9-95.2-0.9-99.3c0-5.4-2.7-10.9-13.9-10.9h-13.9c-2.7,0-3.6-0.9-3.6-3.2v-12c0-1.8,0.9-2.7,3.6-2.7c5.4,0,19,1.4,58,1.4
	c35.3,0,49.8-1.4,56.2-1.4c2.7,0,3.6,0.9,3.6,3.1v11.4c0,2.7-0.9,3.6-3.6,3.6h-14.5c-9.1,0-13.9,2.7-13.9,13.1
	c0,7-1.8,77.9-1.8,99.7v19.9h8.2c5.8-0.1,11.3-2.4,15.4-6.3c8.6-7,87.4-105.6,92.4-112.4c6.3-9.1,0.9-14.5-7-14.5h-7
	c-1.8,0-2.3-0.9-2.3-3.2v-10.7c0-2.7,0.9-3.6,2.7-3.6c5.4,0,23.6,1.4,53.5,1.4c18.1,0,33.5-1.4,39-1.4c2.7,0,3.6,0.9,3.6,3.1v11.4
	c0.2,1.8-1.2,3.5-3,3.6c-0.2,0-0.4,0-0.6,0h-9.1c-9,0.2-17.8,2.8-25.4,7.7c-21.3,13.9-85.2,87.9-102.4,110.6
	c18.1,22.7,110.6,142.3,124.1,158.2c6.9,7.6,16.9,11.6,27.2,10.9h10c1.8-0.2,3.4,1,3.6,2.8c0,0.1,0,0.3,0,0.4v11.4
	c0,2.7-0.9,3.6-3.6,3.6c-4.5,0-20.9-1.4-62.7-1.4c-38.1,0-55.3,1.4-61.6,1.4c-1.8,0-2.7-0.9-2.7-3.6v-11.5c-0.2-1.3,0.7-2.5,2-2.7
	c0.3,0,0.5,0,0.8,0h6.3c4.4-0.1,8-3.7,7.9-8.1c0-1.3-0.3-2.5-0.9-3.7c-4.5-9.1-77.9-114.2-85.2-121.4c-4-4.2-9.6-6.5-15.4-6.3h-8.2
	L1460.6,2961.5z"/>
<path fill="#007833" d="M1930.2,2937.8c0,33.5,1.1,95.9,2.2,104.6c1.7,11.2,5.6,20.9,14.5,20.9h27.9c3.3,0,4.5,1.7,4.5,3.9v13.4
	c0,3.9-1.7,5-6.1,5c-7,0-18.4-1.7-76.7-1.7c-54.7,0-68,1.7-73.6,1.7c-3.3,0-4.5-1.7-4.5-5v-12.8c0-2.8,1.1-4.5,3.3-4.5h19
	c12.3,0,20.9-3.3,20.9-18.4c1.1-55.8,1.1-108.2,1.1-160.3V2738c0-19-7.8-27.9-17.8-27.9h-21.7c-2.8,0-3.9-1.1-3.9-3.3v-15.7
	c0-2.8,1.1-3.9,3.9-3.9c3.9,0,21.7,1.7,76.7,1.7c31.2,0,82.5-1.7,99.3-1.7c44.6,0,79.2,15.1,101.5,34.9
	c18.5,15.7,29.4,38.5,30.1,62.7c0,70.3-42.4,99.3-103.7,109.3v2.4c13.4,5.1,25.1,14,33.5,25.7c7,8.9,41.3,61.3,45.7,68
	c14.7,22,30.5,43.2,47.4,63.6c10.6,9.5,26.2,10.6,39.6,10.6c3.3,0,4.5,1.7,4.5,3.9v11.7c0,3.9-1.1,5.6-4.5,5.6
	c-4.5,0-19-1.7-54.7-1.7c-15.6,0-36.8,1.1-48.8,1.7c-9.6-9.4-17.9-20.1-24.5-31.8c-10-15.6-31.8-55.8-36.8-64.7
	c-5.6-10-20.9-35.7-30.1-48c-13.9-19.5-26.8-34.9-50.2-34.9c-2.2,0-11.7,0.6-17.8,1.1L1930.2,2937.8z M1931.3,2887.5
	c6.9,1.2,13.9,2,20.9,2.2c87,0,104.6-70.3,104.6-95.9c0.5-23.3-8.3-45.9-24.5-62.7c-20.1-17.8-45.7-24-73.6-24
	c-6.9-0.7-13.8,0.5-20.1,3.3c-4.8,3.9-7.4,10-7,16.2L1931.3,2887.5z"/>
<path fill="#007833" d="M2323.9,2937c0,4.5,0.9,108.7,0.9,113.8c0,14.5,7,16.3,18.1,16.3h19c1.8-0.2,3.4,1,3.6,2.8
	c0,0.1,0,0.3,0,0.4v11.4c0,2.7-1.8,3.6-4.5,3.6c-5.4,0-23.6-1.4-66.2-1.4c-45.3,0-65.2,1.4-69.7,1.4c-2.7,0-3.6-0.9-3.6-3.2V3070
	c0-1.8,0.9-2.7,3.6-2.7h18.1c9.1,0,19-0.9,20.9-13.1c0.9-6.3,1.8-104.6,1.8-128.7v-31.9c0-10.9-0.9-92.4-1.4-98.4
	c-1.3-10.9-5.9-15.4-18.6-15.4h-23.6c-2.7,0-3.6-0.9-3.6-3.2v-11.7c0-2.3,0.9-3.1,2.7-3.1c5.4,0,29,1.4,73.4,1.4s58-1.4,64.3-1.4
	c2.7,0,3.6,1.8,3.6,4v10.5c0.2,1.8-1.2,3.5-3,3.6c-0.2,0-0.4,0-0.6,0h-17.2c-10,0-17.2,3.6-17.2,12.2c0,4.5-0.9,104.6-0.9,109.7
	L2323.9,2937z"/>
<path fill="#007833" d="M2443.7,2875.4c0-11.8-1.8-76.1-2.7-83c-0.9-10.9-7-12.7-16.3-12.7h-24.6c-1.8,0.2-3.4-1-3.6-2.8
	c0-0.1,0-0.3,0-0.4v-12.3c0-1.8,1.8-2.7,4-2.7c13.1,0,36.7,1.4,68.5,1.4c22.7,0,45.3-1.4,68-1.4c60.7,0,109.7,5.9,151.3,41.2
	c29.9,24.5,50.7,62.7,50.7,115.1s-14.5,86.1-44.4,118.5c-44.4,48-115.1,48.8-145.9,48.8c-17.2,0-63.4-1.4-86.1-1.4
	c-39.9,0-58,1.4-64.3,1.4c-1.8,0-2.7-0.9-2.7-4v-11.3c0-1.8,0.9-2.7,3.6-2.7h26.3c9.1,0,13.9-3.6,14.9-11.3
	c1.4-9.1,3.2-111.5,3.2-145.9L2443.7,2875.4z M2500.8,2919.9c0,5.4,0.9,82.5,0.9,110.6c-0.2,9.1,2.6,18.1,8.2,25.4
	c5.4,8.6,22.7,12.2,39.9,12.2c36.8,0.2,71.7-16.7,94.3-45.8c21.8-30,33.2-66.2,32.6-103.3c-0.5-36.1-13.3-71-36.3-98.8
	c-26.9-27.1-63.4-42.4-101.5-42.6c-10,0-21.7,0-29,4.5c-7.2,4.5-8.2,10.9-8.2,19.9c-0.9,19-0.9,77.9-0.9,85.2V2919.9z"/>
<path fill="#007833" d="M3075.6,3038.9c0,6.3,1.8,10.9,1.8,14.5s-2.7,5.4-7,7c-39.6,20.8-83.9,31.1-128.7,29.9
	c-44.4,0-99.7-15.4-130.5-52.6c-27.9-30.8-41.8-69.7-41.8-123.2c0.2-43.7,19-85.2,51.7-114.2c32.6-29,74.3-44.4,128.7-44.4
	c43.5,0,77.9,13.9,92.4,24.5c5.4,4.1,8.2,2.7,10.9-0.9l5.4-7c2.3-3.2,3.6-4.5,6.3-4.5c4.5,0,5.4,2.7,5.4,6.3l4.5,90.6
	c0,3.6,0,5.9-1.8,6.3l-10.9,1.8c-2.7,0.5-3.6-0.9-4.5-3.6c-7.7-23.2-20-44.5-36.2-62.7c-19.6-20.5-46.8-32-75.2-31.7
	c-29.7-1.1-58.2,12-76.7,35.3c-24.1,28.7-37.3,64.9-37.2,102.4c0,53.5,14.5,99.7,40.8,126c18.8,19.9,45.1,31.1,72.5,30.8
	c29,0,46.2-3.6,61.6-11.8c10-5.4,10.9-18.1,10.9-41.8v-32.7c0-16.3-4.5-20.9-16.3-20.9h-19.5c-2.7,0-3.6-1.8-3.6-4.1v-10.5
	c0-2.7,0.9-3.6,2.7-3.6c5.4,0,27.2,1.3,64.3,1.3c37.2,0,53.5-1.3,58-1.3s4.5,0.9,4.5,3.1v11.4c0,2.7-0.9,3.6-3.6,3.6h-15.4
	c-8.2,0-13.9,3.6-13.9,16.8L3075.6,3038.9z"/>
<path fill="#007833" d="M3214.7,2952.4c0.5,24.5,1.4,68.9,1.4,77c0,23.6,8.2,32.6,18.1,35.3c11.6,2.7,23.5,3.9,35.3,3.6
	c8.2,0,29-0.9,38.1-1.8c13.5-1.8,26.3-7.1,37.2-15.4c8.2-7,33.5-37.2,41.8-48c1.8-2.3,3.2-2.7,4.9-1.8l7,4.5
	c1.4,0.9,1.8,2.3,0.9,4.5l-21.7,68c-1.2,4.4-5.4,7.3-10,7c-4.5,0-39.9-1.4-191.2-1.4c-33.5,0-49.8,1.4-58,1.4
	c-2.7,0-3.6-0.9-3.6-3.6v-10.8c0-2.7,0.9-3.6,4.5-3.6h15.4c20.9,0,22.7-2.7,22.7-19.4v-152.5c0-37.2-0.9-93.3-1.8-99.7
	c-1.8-12.2-6.3-15.8-19.9-15.8h-17.3c-1.8,0-2.7-0.9-2.7-3.2v-11.8c0-2.3,0.5-3.1,2.7-3.1c10,0,26.3,1.8,63.4,1.4h12.7
	c19.9,0,124.1-0.9,144.1-0.9c7,0,15.9-0.5,18.1-0.5c1.7-0.3,3.3,0.9,3.6,2.6v0.1c1.8,5.9,19,67.5,20.9,72.1c0.9,2.7,0.4,4-1.4,4.9
	l-8.2,3.6c-1.4,0.4-2.7,0-4.1-2.3c-1.4-2.3-38.3-44.4-49.2-50.7c-10.4-6.6-22.2-10.6-34.4-11.8l-68.9-2.2l-0.9,131
	c17.2,0.1,34.5-0.6,51.7-2.2c9.5-1.1,17.6-7.4,20.9-16.3c3.9-8,6.2-16.6,7-25.4c-0.2-1.8,1.2-3.5,3-3.6c0.2,0,0.4,0,0.6,0l11.8,0.9
	c1.8,0,3.2,0.9,2.7,3.6c-0.9,7-0.9,37.2-0.9,48.8c0,18.1,1.8,39.9,2.7,49.8c0,2.2-0.9,2.7-3.6,3.2l-10,1.8c-1.8,0.4-2.7-0.5-3.6-3.1
	c-1.9-7.7-4.2-15.3-7-22.7c-4.1-9.1-12.7-15.3-22.7-16.3c-16.3-1.8-38.1-2.7-52.6-2.7L3214.7,2952.4z"/>
<path fill="#007833" d="M36.2,3114.1c0,0,9.7,1.7,24.5-9.2c19.2-13.9,24.5-20.1,27.3-27.9c0,0,2.4-6.4-11.6-17.5
	C60.7,3047,13.7,3020,13.7,3020c3.3-1.9,13.5,0.3,22.3-2.2c-8-5.2-15.5-11.2-22.2-18.1c-6.1-5.4-10.8-12.2-13.9-19.7
	c11.7,2.2,22.8,6.8,32.8,13.3c0,0,18.6,11.3,13-3.4c-5-13.2-8.4-14.4-8.4-14.4s31.8,2.9,61.1,9.1c29.3,6.2,67.8,31.1,80.8,16.5
	s29.6-40.8-5.2-64.4s-53.7-26.7-77-33.2c-16-4.6-32.3-8.3-48.8-11.1c-13.8-3-25.1-12.8-30.3-25.9c0,0,36.2,20.1,39.9,4
	c3.6-16.2-2-28.2-13.9-40.1c-7.5-7.8-14.5-16.1-20.9-24.9c0,0,1.1,2.4,19.9,4.9s19.6,16.7,18.5,2.6c-1.2-9.6-4.7-18.8-10-26.9
	c0,0,13.2,8.2,33.2,18.8c19.9,10.6,41.8,34.4,51,23.9s20.5-14.6,5.7-37.1c-12.1-20.3-22.4-41.5-30.8-63.6c4.9,3.5,14.6,9,18.5,8.2
	c-2.8-12.9-6.9-25.5-12.3-37.6c0,0,8.2-1.1,22,9.6l13.9,10.7c2.6-4.3,4.2-9,4.9-13.9c0,0,23.3,17.8,29.1,29.7s31.3,28.5,29.1,12.1
	c-0.8-8.9-4-17.4-9.1-24.7c5.9,2.3,11.4,5.5,16.3,9.5c0,0,10.6-2.2,3.8-22.3c-4-11.7-6.9-23.8-8.8-36c12.2,7.5,25,35.3,40.7,41.8
	c1-5.3-1.9-16.7-1-20c11.4,12.8,17.2,29.6,16,46.7c-1.4,31.2,0.8,60.4-4,86.4c-5.4,29.8,14.6,71.6,31.2,51.8
	c16.7-19.8,20.9-39.6,28.8-66.4c6-19.8,17.5-37.6,33.3-51.1c0,0-7.9,18.7-2.6,24.7c6-11.7,10.4-8.4,21.4-22.1
	c13.8-18.2,31.1-33.5,50.7-45c-7.4,8.7-13.5,18.4-18,28.9c-4.8,13.9,1.5,38.6,8.6,26.9c5.1-8.6,12.3-15.8,20.9-20.9
	c0,0,2.4,13.2-15,51.4c-9.3,20.9-36.7,43.5-21.4,53.7c17.7,11.6,29.3,14.4,40.8,8.4c7.1-4.5,15.2-7.1,23.6-7.7
	c-0.8,4.6-7,7-8.1,12.5c1.2,3,13.3-9.4,26.8-10c-17.1,32.6-34.9,34.9-34.3,42.9c5.6,3.8,18,1.9,24.4,8.5
	c-18.4,2.9-36.5,7.9-53.8,14.8c-18.9,9.2-43.1,34.3-57,58.1c-17.1,29.1-30.3,103.6,6.5,71.4s70.5-95.3,70.5-95.3
	s-2.8,30.7,11.4,23.8c14.2-6.8,44.4-33.9,44.4-33.9c-2.8,17.4-8.6,34.1-17.1,49.5c-9.3,17.1-15.5,28.6-13.9,40
	c2.4,3.8,8.9-10.2,45.4-17.8c-10.9,15.8-24.2,29.9-39.3,41.8c-25,18.4-47.9,40.4-53.1,59c-5.6,19.9,15.8,46.3,44.2,21.8
	c15.6-13,28.1-29.3,36.7-47.7c7-13.9,20.5-41.8,28.6-51c0.7,9,3,17.8,7,25.9c3.8,1.9,9-4.8,37.8-12.5c0,33.7-18.5,50.1-13.9,54.8
	c0,0,4,5.6,16,2.6c18-4.6,18.8-3.3,18.8-3.3c-19.7,23.8-45.2,42.2-74,53.5c-26.9,10.9-132.9,50.3-116.1,112.9
	c3.5,12.9,51.7,89.9,122.4,93.7l12.3-0.6c7.3-1,10.5-2.2,11.7-0.6c1.3,1.7,1,3.8,2.4,12c2.2,13-13.2,9.4-44.5,1.9
	c-55.8-13.9-97.6-73-115.4-99.1c-11.4-14.1-25.1-26.1-40.5-35.5c-24.6-12.8-51.9-19.7-79.6-19.9c-44.5-0.3-90.2,14.7-111.5,15.3
	c6-5.4,21.6-9.3,27-13.9c-8.6-8.3-48.8-10.9-60.2-19c13.9-12.2,44.8-13.9,50.8-19.9c-3.8-6.3-5.4-13.6-4.5-20.9
	c0,0,10.7,8.2,42.7,8.8c23.5,0.4,48,2.5,60-8.9c14.5-13.9,17.6-33.6,0-45.6c-17.2-13-38.8-18.8-60.2-16c-27.9,2.1-120.6,25-120.6,25
	C77.2,3143.4,43.6,3121.4,36.2,3114.1z"/>
</svg>
